<?xml version='1.0' encoding='utf-8'?>
<svg xmlns="http://www.w3.org/2000/svg" version="1.1" width="600px" height="976px" viewBox="0 0 600 976">
    <g id="layer1">
        <g>
            <g style="fill:rgb(0,0,0); fill-opacity:1.0; stroke-linejoin: miter">
                <path
                    d="M415.93658,658.0065L184.04587,658.0065L184.04587,282.13135L415.93658,282.13135L415.93658,658.0065 Z M281.94632,696.17285C281.94632,685.839,290.24567,677.45557,300.485,677.45557C310.7278,677.45557,319.02362,685.839,319.02362,696.17285C319.02362,706.50323,310.72778,714.90063,300.485,714.90063C290.24567,714.8866,281.94632,706.50323,281.94632,696.17285 M431.49518,713.16016L431.5267,713.16016L431.5267,262.70325L431.5267,262.69974L431.5267,262.60867L431.51968,262.60867C431.47067,252.32384,423.12582,244.0,412.82346,244.0C412.7499,244.0,412.69037,244.007,412.62384,244.007L412.62384,244.0L370.6125,244.0L248.04868,244.0L187.159,244.0C176.87065,244.007,168.5328,252.33084,168.47678,262.60867L168.47328,262.60867L168.47328,713.1567L168.5013,713.1567C168.4943,713.3528,168.47328,713.54535,168.47328,713.74854C168.47328,723.8268,176.94418,732.0,187.39713,732.0C187.55121,732.0,187.7018,731.979,187.85587,731.97546L187.85587,732.0L413.0791,732.0L413.0791,732.0C423.24838,732.0,431.5232,723.8303,431.5232,713.74854C431.5267,713.54895,431.50217,713.3528,431.49518,713.16016 Z" />
            </g>
        </g>
        <g style="fill:rgb(45,52,50); fill-opacity:1.0; stroke-linejoin: miter">
            <path d="M424.75912,268.85074L423.84714,671.84924L175.22305,671.2868L176.13503,268.28812 Z" />
        </g>
        <g style="fill:rgb(161,154,137); fill-opacity:1.0; stroke-linejoin: miter">
            <path
                d="M300.485,677.45557C310.7278,677.45557,319.02362,685.839,319.02362,696.17285C319.02362,706.50323,310.72778,714.90063,300.485,714.90063C290.24567,714.8866,281.94632,706.50323,281.94632,696.17285C281.94632,685.839,290.24567,677.45557,300.485,677.45557 Z" />
        </g>
    </g>
    <g id="layer2">
        <g style="fill:rgb(0,0,0); fill-opacity:1.0; stroke-linejoin: miter">
            <path
                d="M284.43686,371.60126C283.34036,371.58542,282.43817,372.49802,282.42166,373.63977C282.4052,374.78146,283.28073,375.72,284.37723,375.73584C285.47372,375.75165,286.37598,374.83887,286.3925,373.69717C286.40894,372.5554,285.5334,371.61707,284.43686,371.60126 Z" />
        </g>
        <g style="fill:rgb(0,0,0); fill-opacity:1.0; stroke-linejoin: miter">
            <path
                d="M326.1334,372.20294C325.0369,372.18707,324.13467,373.0998,324.11823,374.24158C324.1017,375.38327,324.97726,376.3217,326.07376,376.33755C327.1703,376.35333,328.0725,375.44052,328.089,374.2988C328.10547,373.157,327.22995,372.21875,326.1334,372.20294 Z M326.1334,372.20294" />
        </g>
        <g style="fill:rgb(0,192,130); fill-opacity:1.0; stroke-linejoin: miter">
            <path
                d="M350.08163,398.51526L349.08386,467.65576C348.99326,473.93573,344.03043,478.95624,337.99936,478.86914L332.53894,478.7904L332.2033,502.04886C332.10437,508.89975,326.69052,514.3766,320.111,514.2816C313.53134,514.1866,308.27795,508.55594,308.37686,501.70505L308.7125,478.4466L298.78467,478.30328L298.44904,501.56174C298.35013,508.4127,292.93613,513.88947,286.35675,513.7945C279.7775,513.6995,274.52383,508.06882,274.62274,501.21793L274.9583,477.95947L269.49805,477.88068C263.46692,477.79364,258.65106,472.63208,258.74164,466.35205L259.73944,397.2116 Z" />
        </g>
        <g style="fill:rgb(0,192,130); fill-opacity:1.0; stroke-linejoin: miter">
            <path
                d="M364.01923,396.01294C370.59882,396.10788,375.8525,401.73874,375.75366,408.58948L375.11975,452.5221C375.02084,459.37305,369.60687,464.84967,363.02725,464.7547C356.44788,464.6598,351.19418,459.02917,351.29306,452.17822L351.9271,408.24557C352.0259,401.39484,357.4399,395.91797,364.01923,396.01294 Z" />
        </g>
        <g style="fill:rgb(0,192,130); fill-opacity:1.0; stroke-linejoin: miter">
            <path
                d="M245.87985,394.30807C252.45917,394.403,257.71283,400.0339,257.614,406.88467L256.98,450.81732C256.88113,457.6682,251.46744,463.14478,244.88785,463.0498C238.30818,462.95496,233.05476,457.32434,233.15364,450.4734L233.78767,406.5408C233.88654,399.69003,239.30023,394.2132,245.87985,394.30807 Z" />
        </g>
        <g style="fill:rgb(0,192,130); fill-opacity:1.0; stroke-linejoin: miter">
            <path
                d="M284.43686,371.60126C285.5334,371.61707,286.40894,372.5554,286.3925,373.69717C286.37598,374.83887,285.47372,375.75165,284.37723,375.73584C283.28073,375.72,282.4052,374.78146,282.42166,373.63977C282.43817,372.49802,283.34036,371.58542,284.43686,371.60126 Z M326.1334,372.20294C327.22995,372.21875,328.10547,373.157,328.089,374.2988C328.0725,375.44052,327.1703,376.35333,326.07376,376.33755C324.97726,376.3217,324.1017,375.38327,324.11823,374.24158C324.13467,373.0998,325.0369,372.18707,326.1334,372.20294 Z M277.71365,339.4032C277.18442,339.3956,276.64587,339.52365,276.14606,339.80255C274.5746,340.67966,273.9821,342.71625,274.82257,344.35153L281.76593,357.86084C268.78018,365.32443,260.00375,378.8917,259.7784,394.50867C259.7768,394.62115,259.7757,394.73364,259.7749,394.84595C259.7732,394.90567,259.77182,394.96545,259.77097,395.02536L259.76523,395.42386L350.10745,396.7275L350.1132,396.32928C350.11404,396.2693,350.1145,396.20938,350.11444,396.14966C350.117,396.03735,350.11902,395.9248,350.12064,395.81232C350.23755,387.71118,348.03848,380.09497,344.11295,373.54688C344.06546,373.46768,344.01715,373.38776,343.968,373.3068C340.33563,367.33603,335.2619,362.26624,329.19968,358.54535L336.53015,345.242C337.41745,343.63168,336.88397,341.57883,335.33813,340.6567C334.8467,340.36353,334.31213,340.21997,333.78296,340.21237C332.64813,340.19592,331.53842,340.80466,330.93326,341.9029L323.41788,355.54202C317.96405,353.18546,311.9325,351.8363,305.576,351.74454C299.21957,351.65286,293.15155,352.82748,287.63205,355.0257L280.5134,341.17532C279.94016,340.06006,278.8485,339.41962,277.71365,339.4032 Z" />
        </g>
        <g style="fill:rgb(0,192,130); fill-opacity:1.0; stroke-linejoin: miter">
            <path
                d="M255.14287,551.8886Q253.10094,551.9077,251.60754,553.3529Q250.16225,554.846,250.14288,556.88824Q250.16185,558.9302,251.60689,560.4237Q253.0999,561.86914,255.14217,561.8886Q257.1841,561.8698,258.67773,560.42487Q260.12323,558.93195,260.14288,556.8897Q260.1242,554.8477,258.67938,553.35406Q257.18658,551.90845,255.14435,551.8886" />
        </g>
        <g style="fill:rgb(0,192,130); fill-opacity:1.0; stroke-linejoin: miter">
            <path
                d="M281.25476,551.8886Q279.21283,551.9077,277.71942,553.35284Q276.2741,554.84595,276.25476,556.88824Q276.27374,558.9302,277.71875,560.42365Q279.21173,561.8691,281.25403,561.8886Q283.29596,561.86975,284.78955,560.42487Q286.2351,558.93195,286.25476,556.8897Q286.23608,554.8477,284.79126,553.35406Q283.29846,551.9084,281.25616,551.8886" />
        </g>
        <g style="fill:rgb(0,192,130); fill-opacity:1.0; stroke-linejoin: miter">
            <path
                d="M307.36664,551.88855Q305.3247,551.90765,303.8313,553.35284Q302.386,554.84595,302.36664,556.88824Q302.38562,558.9302,303.83063,560.4237Q305.3236,561.8691,307.3659,561.8886Q309.40784,561.8698,310.90143,560.42487Q312.347,558.93195,312.36664,556.88965Q312.34796,554.84766,310.90314,553.354Q309.41034,551.9083,307.36804,551.88855" />
        </g>
        <g style="fill:rgb(0,192,130); fill-opacity:1.0; stroke-linejoin: miter">
            <path
                d="M333.47852,551.8886Q331.43658,551.9077,329.94318,553.35284Q328.49786,554.84595,328.47852,556.88824Q328.49744,558.9302,329.94244,560.42365Q331.4355,561.8691,333.47772,561.8886Q335.5197,561.8698,337.0133,560.42487Q338.4588,558.932,338.47845,556.8897Q338.45984,554.8478,337.015,553.35406Q335.52222,551.90845,333.47998,551.8886" />
        </g>
        <g style="fill:rgb(0,192,130); fill-opacity:1.0; stroke-linejoin: miter">
            <path
                d="M359.59033,551.8886Q357.5484,551.9077,356.055,553.35284Q354.60968,554.84595,354.59033,556.88824Q354.6093,558.9302,356.05432,560.42365Q357.5473,561.8691,359.5896,561.8886Q361.63153,561.8698,363.12512,560.42487Q364.57068,558.932,364.59033,556.8898Q364.57172,554.8478,363.1269,553.35406Q361.6341,551.90845,359.59186,551.8886" />
        </g>
        <g>
            <g style="fill:rgb(0,192,130); fill-opacity:1.0; stroke-linejoin: miter">
                <path
                    d="M316.73828,574.6857L315.6364,574.7001L315.65073,575.8019L316.7526,575.78754L316.73828,574.6857 Z M341.22736,578.41626Q341.3164,578.41705,341.4063,578.4211Q341.46295,578.42035,341.53867,578.421Q342.28674,578.42786,344.89072,578.57416Q344.9428,579.1906,344.96478,584.28174Q344.97626,586.8604,343.2553,588.4256Q341.83923,589.70026,340.23053,589.7212Q340.18988,589.72174,340.1495,589.7214Q338.15424,589.7031,336.8294,587.4951Q336.10846,586.29224,336.08673,584.61743Q336.0693,583.2732,336.53693,581.9447Q337.0475,580.5274,337.96246,579.69995Q339.4162,578.39966,341.22736,578.41626 Z M307.0874,578.92206Q307.20093,578.92316,307.31586,578.9297Q307.36523,578.929,307.429,578.9296Q308.16232,578.93634,310.80054,579.10486Q310.85236,579.6993,310.87405,584.7684Q310.8855,587.347,309.1643,588.89014Q307.7479,590.1428,306.16122,590.1634Q306.1198,590.16394,306.07867,590.1636Q304.08493,590.1453,302.7827,587.98114Q302.03973,586.7785,302.01804,585.10364Q302.00058,583.7594,302.4685,582.453Q302.97882,581.01373,303.89407,580.2083Q305.32657,578.906,307.0874,578.92206 Z M293.6214,579.09686Q293.7356,579.0979,293.8512,579.10443Q293.90042,579.10376,293.9638,579.1044Q294.69525,579.111,297.31384,579.2799Q297.3874,584.94336,297.3874,584.94336Q297.3988,587.52203,295.69965,589.0649Q294.28326,590.31757,292.67456,590.33844Q292.63397,590.339,292.5937,590.3386Q290.62012,590.32056,289.29605,588.1562Q288.57513,586.9533,288.5534,585.27844Q288.53595,583.9342,289.00388,582.62775Q289.51416,581.1885,290.4074,580.38336Q291.8404,579.08057,293.6214,579.09686 Z M326.93582,577.4424Q326.8586,577.4417,326.78058,577.44275Q325.3922,577.46075,324.1676,578.2039Q322.9209,578.9475,322.121,580.14813L322.09155,577.8783L320.9897,577.8926L321.15503,590.62994L322.25687,590.6157L322.16647,583.652Q322.1373,581.4042,323.85822,579.839Q325.2743,578.56433,326.88303,578.54346Q326.91266,578.543,326.9423,578.54333Q327.1551,578.5453,327.3684,578.58124Q328.56097,578.76404,329.18317,579.1528Q329.80536,579.5414,330.3239,580.43835Q330.99933,581.5316,331.0265,583.6252L331.11578,590.5007L332.2617,590.48584L332.17242,583.6102Q332.1404,581.1421,331.32935,579.78613Q330.67627,578.71454,329.8543,578.2184Q329.03207,577.7001,327.55246,577.4768Q327.25107,577.44525,326.93582,577.4424 Z M279.4229,579.2707Q281.2384,579.2873,282.6552,580.85876Q284.10907,582.4929,284.13855,584.7627Q284.17145,587.297,282.86865,588.8127Q281.5662,590.35034,279.47266,590.37756Q279.40503,590.3784,279.33826,590.3778Q277.29333,590.3591,276.01572,588.9457Q274.6961,587.464,274.66263,584.88574Q274.63318,582.61584,276.0444,580.96655Q277.45535,579.29517,279.3285,579.2709Q279.37585,579.27026,279.4229,579.2707 Z M316.78033,577.9252L315.67847,577.93945L315.84436,590.721L316.94623,590.70667L316.78033,577.9252 Z M311.76996,570.58453L310.69012,570.5985L310.78653,578.02496Q308.96716,577.8783,307.88132,577.86835Q307.703,577.8667,307.5445,577.8688Q304.856,577.9037,303.2656,579.3349Q301.37012,581.03455,300.96484,583.7729Q300.86322,584.4355,300.87152,585.0745Q300.90356,587.54266,302.31564,589.3537Q303.82123,591.2657,306.11728,591.2867Q306.17932,591.28723,306.24194,591.28644Q308.20325,591.261,309.7284,589.8966Q310.46906,589.2258,310.92325,588.55865L310.9333,589.33L310.95187,590.76245L312.03168,590.7484L311.76996,570.58453 Z M293.7359,578.032Q291.44342,578.011,289.80096,579.50964Q287.90546,581.2094,287.50018,583.94763Q287.39862,584.61017,287.40692,585.24927Q287.4389,587.7174,288.851,589.5285Q290.3566,591.4404,292.65265,591.4614Q292.7147,591.462,292.77728,591.46124Q294.7386,591.4357,296.26373,590.0714Q297.00443,589.4006,297.43658,588.73376L297.4466,589.5051L297.46518,590.9375L298.56702,590.92316L298.40314,578.296Q295.9942,578.0599,294.31714,578.04456Q294.1966,578.04346,294.07986,578.0435Q293.9061,578.0335,293.7359,578.032 Z M269.8323,571.04065L268.73047,571.055L268.9939,591.35114L270.09576,591.3368L269.8323,571.04065 Z M279.41406,578.16907Q279.3533,578.1685,279.29218,578.1693Q276.97827,578.19934,275.24078,580.1835Q273.4812,582.16797,273.51666,584.9006Q273.55673,587.9857,275.1886,589.7499Q276.76764,591.4569,279.2948,591.48004Q279.37933,591.4808,279.4649,591.4797Q282.21954,591.4439,283.73926,589.66095Q285.281,587.8777,285.24042,584.7484Q285.20493,582.0158,283.4165,580.0774Q281.67493,578.18976,279.41406,578.16907 Z M341.29102,577.34863Q338.99704,577.32764,337.33398,578.8266Q335.4165,580.52655,335.01154,583.2869Q334.93195,583.94916,334.94025,584.58826Q334.97256,587.07837,336.38464,588.88947Q337.8899,590.80096,340.20605,590.82214Q340.26923,590.8227,340.33295,590.8219Q342.29425,590.79645,343.8194,589.4321Q344.56006,588.7613,345.01428,588.0941L345.0243,588.86554L345.04517,590.4742Q345.0509,590.9149,345.05432,591.1794Q345.02795,594.24347,343.50284,595.60767Q342.15198,596.81537,340.16864,596.8411Q340.06616,596.84247,339.9585,596.8415Q338.93164,596.8321,337.43262,596.6122L337.2483,597.6946Q338.7475,597.9145,339.77438,597.9239Q339.88196,597.92487,339.9843,597.9235Q340.66745,597.9147,341.23956,597.84106Q343.04318,597.5532,344.0669,596.61426Q346.15845,594.73566,346.15674,591.20917Q346.1585,589.6443,346.11243,587.79333L345.97998,577.5903Q343.59344,577.3768,341.9063,577.3613Q341.76828,577.36005,341.63495,577.3601Q341.46124,577.35016,341.29102,577.34863 Z" />
            </g>
        </g>
    </g>
</svg>